<svg width="20.000000" height="20.000000" viewBox="0 0 20 20" fill="none" xmlns="http://www.w3.org/2000/svg" xmlns:xlink="http://www.w3.org/1999/xlink">
	<desc>
			Created with Pixso.
	</desc>
	<defs>
		<clipPath id="clip2_173">
			<rect id="icn favorite" rx="0.000000" width="19.375000" height="19.375000" transform="translate(0.312500 0.312500)" fill="white" fill-opacity="0"/>
		</clipPath>
	</defs>
	<rect id="icn favorite" rx="0.000000" width="19.375000" height="19.375000" transform="translate(0.312500 0.312500)" fill="#FFFFFF" fill-opacity="0"/>
	<g clip-path="url(#clip2_173)">
		<path id="Vector" d="M14.03 3.75C14.48 3.74 14.93 3.83 15.35 4.01C15.77 4.19 16.15 4.45 16.47 4.77C17.13 5.44 17.5 6.33 17.5 7.27C17.5 8.21 17.13 9.1 16.47 9.77L10 16.33L3.52 9.77C2.86 9.1 2.5 8.21 2.5 7.27C2.5 6.33 2.86 5.44 3.52 4.77C3.84 4.45 4.22 4.19 4.64 4.01C5.06 3.84 5.51 3.74 5.96 3.74C6.42 3.74 6.87 3.84 7.29 4.01C7.71 4.19 8.09 4.45 8.41 4.77L10 6.39L11.58 4.78C11.89 4.45 12.28 4.19 12.7 4.01C13.12 3.84 13.57 3.74 14.03 3.75ZM14.03 2.5C13.41 2.49 12.79 2.62 12.22 2.86C11.64 3.1 11.12 3.45 10.69 3.89L10 4.6L9.3 3.89C8.87 3.45 8.35 3.1 7.77 2.86C7.2 2.62 6.59 2.5 5.96 2.5C5.34 2.5 4.73 2.62 4.16 2.86C3.58 3.1 3.06 3.45 2.63 3.89C1.74 4.8 1.24 6.01 1.24 7.28C1.24 8.54 1.74 9.76 2.63 10.66L10 18.12L17.36 10.66C18.25 9.76 18.75 8.54 18.75 7.28C18.75 6.01 18.25 4.8 17.36 3.89C16.93 3.45 16.41 3.1 15.84 2.86C15.26 2.62 14.65 2.5 14.03 2.5Z" fill="#BDBDBD" fill-opacity="1.000000" fill-rule="nonzero"/>
		<path id="Vector" d="M9.56 4.15L9.3 3.89C8.87 3.45 8.35 3.1 7.77 2.86C7.2 2.62 6.59 2.5 5.96 2.5C5.34 2.5 4.73 2.62 4.16 2.86C3.58 3.1 3.06 3.45 2.63 3.89C1.74 4.8 1.24 6.01 1.24 7.28C1.24 8.54 1.74 9.76 2.63 10.66L9.56 17.68L10 18.12L10.43 17.68L17.36 10.66C18.25 9.76 18.75 8.54 18.75 7.28C18.75 6.01 18.25 4.8 17.36 3.89C16.93 3.45 16.41 3.1 15.84 2.86C15.26 2.62 14.65 2.5 14.03 2.5C13.41 2.49 12.79 2.62 12.22 2.86C11.64 3.1 11.12 3.45 10.69 3.89L10.44 4.15L10 4.6L9.56 4.15ZM10 17.23L16.92 10.22Q17.2 9.93 17.42 9.6Q17.65 9.26 17.81 8.87Q17.97 8.48 18.04 8.09Q18.12 7.69 18.12 7.28Q18.12 6.86 18.04 6.47Q17.97 6.07 17.81 5.69Q17.65 5.3 17.43 4.97Q17.21 4.63 16.92 4.33Q16.7 4.11 16.46 3.93Q16.7 4.11 16.92 4.33Q17.2 4.62 17.42 4.95Q17.65 5.29 17.81 5.68Q17.96 6.06 18.04 6.46Q18.12 6.86 18.12 7.27Q18.12 7.68 18.04 8.08Q17.96 8.48 17.81 8.86Q17.65 9.24 17.43 9.58Q17.2 9.91 16.92 10.21L10 17.22L3.08 10.21Q2.78 9.91 2.56 9.57Q2.34 9.23 2.18 8.86Q2.03 8.48 1.95 8.08Q1.87 7.68 1.87 7.27Q1.87 6.86 1.95 6.46Q2.03 6.06 2.18 5.68Q2.34 5.3 2.56 4.96Q2.79 4.63 3.08 4.33Q3.27 4.13 3.49 3.97Q3.27 4.13 3.07 4.33Q2.79 4.63 2.56 4.96Q2.34 5.3 2.18 5.69Q2.03 6.07 1.95 6.47Q1.87 6.86 1.87 7.28Q1.87 7.69 1.95 8.09Q2.03 8.48 2.18 8.87Q2.34 9.25 2.56 9.59Q2.78 9.93 3.07 10.22L10 17.23ZM8.49 4.01Q8.68 4.16 8.85 4.33L10 5.5L11.13 4.35Q11.39 4.07 11.7 3.86Q12.05 3.61 12.45 3.44Q12.83 3.28 13.22 3.2Q13.35 3.17 13.49 3.16Q13.35 3.17 13.22 3.2Q12.83 3.28 12.46 3.43Q12.08 3.59 11.75 3.82Q11.42 4.04 11.14 4.33L10 5.48L8.86 4.33Q8.68 4.16 8.49 4.01ZM10.43 5.95L10 6.39L9.56 5.95L8.41 4.77C8.09 4.45 7.71 4.19 7.29 4.01C6.87 3.84 6.42 3.74 5.96 3.74C5.51 3.74 5.06 3.84 4.64 4.01C4.22 4.19 3.84 4.45 3.52 4.77C2.86 5.44 2.5 6.33 2.5 7.27C2.5 8.21 2.86 9.1 3.52 9.77L9.56 15.88L10 16.33L10.43 15.88L16.47 9.77C17.13 9.1 17.5 8.21 17.5 7.27C17.5 6.33 17.13 5.44 16.47 4.77C16.15 4.45 15.77 4.19 15.35 4.01C14.93 3.83 14.48 3.74 14.03 3.75C13.57 3.74 13.12 3.84 12.7 4.01C12.28 4.19 11.89 4.45 11.58 4.78L10.43 5.95Z" fill="#252B42" fill-opacity="1.000000" fill-rule="evenodd"/>
	</g>
</svg>
