<svg width="20.000000" height="20.000000" viewBox="0 0 20 20" fill="none" xmlns="http://www.w3.org/2000/svg" xmlns:xlink="http://www.w3.org/1999/xlink">
	<desc>
			Created with Pixso.
	</desc>
	<defs>
		<clipPath id="clip2_179">
			<rect id="icn favorite" rx="0.000000" width="19.375000" height="19.375000" transform="translate(0.312500 0.312500)" fill="white" fill-opacity="0"/>
		</clipPath>
	</defs>
	<rect id="icn favorite" rx="0.000000" width="19.375000" height="19.375000" transform="translate(0.312500 0.312500)" fill="#FFFFFF" fill-opacity="0"/>
	<g clip-path="url(#clip2_179)">
		<path id="Vector" d="M12.5 10C12.5 10.66 12.23 11.29 11.76 11.76C11.29 12.23 10.66 12.5 10 12.5C9.33 12.5 8.7 12.23 8.23 11.76C7.76 11.29 7.5 10.66 7.5 10C7.5 9.33 7.76 8.7 8.23 8.23C8.7 7.76 9.33 7.5 10 7.5C10.66 7.5 11.29 7.76 11.76 8.23C12.23 8.7 12.5 9.33 12.5 10Z" fill="#000000" fill-opacity="1.000000" fill-rule="nonzero"/>
		<path id="Vector" d="M2 10C2 10 5 4.5 10 4.5C15 4.5 18 10 18 10C18 10 15 15.5 10 15.5C5 15.5 2 10 2 10ZM10 13.5C10.92 13.5 11.81 13.13 12.47 12.47C13.13 11.81 13.5 10.92 13.5 10C13.5 9.07 13.13 8.18 12.47 7.52C11.81 6.86 10.92 6.5 10 6.5C9.07 6.5 8.18 6.86 7.52 7.52C6.86 8.18 6.5 9.07 6.5 10C6.5 10.92 6.86 11.81 7.52 12.47C8.18 13.13 9.07 13.5 10 13.5Z" fill="#000000" fill-opacity="1.000000" fill-rule="nonzero"/>
	</g>
</svg>
