<svg width="20.000000" height="20.000000" viewBox="0 0 20 20" fill="none" xmlns="http://www.w3.org/2000/svg" xmlns:xlink="http://www.w3.org/1999/xlink">
	<desc>
			Created with Pixso.
	</desc>
	<defs>
		<clipPath id="clip2_176">
			<rect id="icn favorite" rx="0.000000" width="19.375000" height="19.375000" transform="translate(0.312500 0.312500)" fill="white" fill-opacity="0"/>
		</clipPath>
	</defs>
	<rect id="icn favorite" rx="0.000000" width="19.375000" height="19.375000" transform="translate(0.312500 0.312500)" fill="#FFFFFF" fill-opacity="0"/>
	<g clip-path="url(#clip2_176)">
		<path id="Vector" d="M0 1.63C0 1.46 0.06 1.3 0.18 1.18C0.3 1.06 0.46 1 0.63 1L2.53 1C2.67 1 2.81 1.04 2.92 1.13C3.03 1.22 3.11 1.34 3.14 1.47L3.66 3.53L18.36 3.53C18.45 3.53 18.55 3.55 18.63 3.59C18.72 3.63 18.79 3.69 18.85 3.76C18.91 3.83 18.95 3.91 18.97 4C19 4.09 19 4.19 18.98 4.28L17.08 14.41C17.06 14.56 16.98 14.69 16.87 14.78C16.75 14.88 16.61 14.93 16.46 14.93L5.06 14.93C4.91 14.93 4.77 14.88 4.66 14.78C4.54 14.69 4.47 14.56 4.44 14.41L2.54 4.3L2.03 2.26L0.63 2.26C0.46 2.26 0.3 2.19 0.18 2.08C0.06 1.96 0 1.8 0 1.63ZM3.92 4.79L5.59 13.66L15.94 13.66L17.6 4.79L3.92 4.79ZM6.33 14.93C5.66 14.93 5.01 15.2 4.54 15.67C4.06 16.15 3.79 16.79 3.79 17.46C3.79 18.13 4.06 18.78 4.54 19.25C5.01 19.73 5.66 20 6.33 20C7 20 7.64 19.73 8.12 19.25C8.59 18.78 8.86 18.13 8.86 17.46C8.86 16.79 8.59 16.15 8.12 15.67C7.64 15.2 7 14.93 6.33 14.93ZM15.2 14.93C14.52 14.93 13.88 15.2 13.4 15.67C12.93 16.15 12.66 16.79 12.66 17.46C12.66 18.13 12.93 18.78 13.4 19.25C13.88 19.73 14.52 20 15.2 20C15.87 20 16.51 19.73 16.99 19.25C17.46 18.78 17.73 18.13 17.73 17.46C17.73 16.79 17.46 16.15 16.99 15.67C16.51 15.2 15.87 14.93 15.2 14.93ZM6.33 16.2C6.66 16.2 6.99 16.33 7.22 16.57C7.46 16.8 7.6 17.13 7.6 17.46C7.6 17.8 7.46 18.12 7.22 18.36C6.99 18.6 6.66 18.73 6.33 18.73C5.99 18.73 5.67 18.6 5.43 18.36C5.2 18.12 5.06 17.8 5.06 17.46C5.06 17.13 5.2 16.8 5.43 16.57C5.67 16.33 5.99 16.2 6.33 16.2ZM15.2 16.2C15.53 16.2 15.85 16.33 16.09 16.57C16.33 16.8 16.46 17.13 16.46 17.46C16.46 17.8 16.33 18.12 16.09 18.36C15.85 18.6 15.53 18.73 15.2 18.73C14.86 18.73 14.54 18.6 14.3 18.36C14.06 18.12 13.93 17.8 13.93 17.46C13.93 17.13 14.06 16.8 14.3 16.57C14.54 16.33 14.86 16.2 15.2 16.2Z" fill="#252B42" fill-opacity="1.000000" fill-rule="nonzero"/>
	</g>
</svg>
