<svg width="14.000000" height="14.000000" viewBox="0 0 14 14" fill="none" xmlns="http://www.w3.org/2000/svg" xmlns:xlink="http://www.w3.org/1999/xlink">
	<desc>
			Created with Pixso.
	</desc>
	<defs/>
	<path id="Vector" d="M14 2.3L13.34 2.52C12.42 2.81 11.46 2.97 10.5 3C9.63 3 8.83 2.54 7.99 2.06C7.08 1.54 6.13 1 5 1C3.56 1 1.95 2.1 1 2.88L1 0L0 0L0 13C0 13.26 0.1 13.51 0.29 13.7C0.48 13.89 0.73 13.99 1 14L14 14L14 2.3ZM1 9.14C1.93 7.68 3.78 5.5 5 5.5C5.81 5.5 6.48 6.05 7.17 6.63C7.94 7.27 8.81 8 10 8C11.11 7.94 12.18 7.49 13 6.73L13 9.21C12.07 9.71 11.04 9.98 10 10C9.19 9.97 8.4 9.81 7.65 9.52C6.8 9.19 5.91 9.01 5 9C3.53 9 1.96 10.47 1 11.57L1 9.14ZM5 2C5.86 2 6.66 2.45 7.5 2.93C8.41 3.45 9.36 4 10.5 4C11.34 3.98 12.18 3.87 13 3.66L13 5.32C12.65 5.72 11.45 7 10 7C9.18 7 8.51 6.44 7.82 5.86C7.05 5.22 6.18 4.5 5 4.5C3.53 4.5 1.96 6.16 1 7.42L1 4.21C1.77 3.48 3.62 2 5 2ZM1.12 13C1.93 11.95 3.7 10 5 10C5.8 10.02 6.59 10.18 7.34 10.47C8.19 10.8 9.08 10.98 10 11C11.03 10.99 12.05 10.76 13 10.33L13 13L1.12 13Z" fill="#E77C40" fill-opacity="1.000000" fill-rule="nonzero"/>
</svg>
