<svg width="26.666992" height="21.333496" viewBox="0 0 26.667 21.3335" fill="none" xmlns="http://www.w3.org/2000/svg" xmlns:xlink="http://www.w3.org/1999/xlink">
	<desc>
			Created with Pixso.
	</desc>
	<defs/>
	<path id="coolicon" d="M24 21.33L2.66 21.33C1.19 21.33 0 20.13 0 18.66L0 2.66C0 1.19 1.19 0 2.66 0L24 0C25.47 0 26.66 1.19 26.66 2.66L26.66 18.66C26.66 20.13 25.47 21.33 24 21.33ZM2.66 10.66L2.66 18.66L24 18.66L24 10.66L2.66 10.66ZM2.66 2.66L2.66 5.33L24 5.33L24 2.66L2.66 2.66ZM14.66 16L5.33 16L5.33 13.33L14.66 13.33L14.66 16Z" fill="#23A6F0" fill-opacity="1.000000" fill-rule="nonzero"/>
</svg>
