<svg width="26.666992" height="26.666504" viewBox="0 0 26.667 26.6665" fill="none" xmlns="http://www.w3.org/2000/svg" xmlns:xlink="http://www.w3.org/1999/xlink">
	<desc>
			Created with Pixso.
	</desc>
	<defs/>
	<path id="coolicon" d="M13.33 26.66C5.96 26.66 0 20.69 0 13.33C0 5.96 5.96 0 13.33 0C20.69 0 26.66 5.96 26.66 13.33C26.65 20.69 20.69 26.65 13.33 26.66ZM13.33 2.66C7.44 2.66 2.66 7.44 2.66 13.33C2.66 19.22 7.44 24 13.33 24C19.22 24 24 19.22 24 13.33C23.99 7.44 19.22 2.67 13.33 2.66ZM20 14.66L12 14.66L12 6.66L14.66 6.66L14.66 12L20 12L20 14.66Z" fill="#FFFFFF" fill-opacity="1.000000" fill-rule="nonzero"/>
</svg>
